<?xml version="1.0" encoding="UTF-8" standalone="no"?>
<svg
   viewBox="0 0 512 512"
   version="1.1"
   id="svg1"
   sodipodi:docname="reel-to-reel.svg"
   inkscape:version="1.4.3 (0d15f75042, 2025-12-25)"
   xmlns:inkscape="http://www.inkscape.org/namespaces/inkscape"
   xmlns:sodipodi="http://sodipodi.sourceforge.net/DTD/sodipodi-0.dtd"
   xmlns="http://www.w3.org/2000/svg"
   xmlns:svg="http://www.w3.org/2000/svg">
  <defs
     id="defs1" />
  <sodipodi:namedview
     id="namedview1"
     pagecolor="#ffffff"
     bordercolor="#000000"
     borderopacity="0.25"
     inkscape:showpageshadow="2"
     inkscape:pageopacity="0.0"
     inkscape:pagecheckerboard="0"
     inkscape:deskcolor="#d1d1d1"
     inkscape:zoom="0.74740187"
     inkscape:cx="286.32522"
     inkscape:cy="257.5589"
     inkscape:window-width="1692"
     inkscape:window-height="1059"
     inkscape:window-x="0"
     inkscape:window-y="0"
     inkscape:window-maximized="1"
     inkscape:current-layer="g1" />
  <g
     id="g1"
     transform="matrix(1.0796078,0,0,1.0796078,-20.381043,-20.389761)">
    <path
       d="m 418.2,465.7 -5.7,2.8 -154.5,0.19 C 135.6,468.84 102.52,468.62 98.8,467.61 88.72,464.88 81.24,457.02 79.06,446.85 78.35,443.56 78,410.16 78,346.95 78,288.76 77.64,252 77.07,252 74.18,252 57.26,238.98 49.24,230.59 31.23,211.75 21.69,190.91 18.84,164.17 16.1,138.46 24.57,108.86 40.83,87.35 63.8,56.98 101.24,40.44 138.97,44 c 43.28,4.08 79.96,32.48 94.48,73.15 l 3.34,9.35 h 38.42 l 3.38,-9.45 c 5.83,-16.34 16.06,-31.95 28.42,-43.4 40.31,-37.32 100.14,-40.23 143.71,-6.99 13.44,10.25 24.07,23.47 31.7,39.4 21.11,44.1 12.15,93.82 -23.08,128.05 -6.95,6.75 -22.17,17.89 -24.44,17.89 -0.47,0 -0.98,43.99 -1.13,97.75 -0.27,96.79 -0.29,97.79 -2.36,102.25 -3.12,6.71 -6.85,10.58 -13.21,13.7 z M 365.5,249.56 c 10.33,1.99 30.79,1.22 41.5,-1.57 29.95,-7.79 54.54,-29.58 65.98,-58.46 11.36,-28.68 7.87,-62.1 -9.23,-88.32 -19.24,-29.52 -54.31,-46.47 -89.3,-43.16 -34.89,3.31 -63.51,23.14 -78.56,54.45 -10.91,22.7 -12.69,47.16 -5.18,70.98 10.75,34.11 39.15,59.19 74.79,66.08 z M 110,249.03 c 4.68,1.01 12.78,1.86 18,1.9 71.97,0.52 119.21,-73.71 88.11,-138.43 C 207.88,95.39 195.78,81.89 179.86,72.09 164.08,62.38 148.27,57.89 129.5,57.79 102.65,57.64 79.96,66.94 60.89,85.92 47.85,98.9 39.45,113.97 34.81,132.69 31.8,144.83 31.78,163.9 34.77,176 c 7.06,28.56 25.92,52.36 51.73,65.26 6.86,3.44 13.48,5.62 23.5,7.77 z m -8.38,204.94 c 1.59,0.48 71.58,0.79 155.92,0.7 144.37,-0.16 153.2,-0.27 155.74,-1.93 6.16,-4.04 6.19,-4.2 6.52,-38.44 L 420.11,383 H 92 l 0.01,29.25 c 0,16.27 0.44,30.84 0.99,32.82 1.16,4.18 4.55,7.67 8.62,8.9 z M 92,314 v 55 h 328 v -55 c 0,-30.25 -0.23,-55 -0.52,-55 -0.28,0 -16.59,15.31 -36.25,34.02 -26.9,25.61 -37.09,34.69 -41.23,36.75 l -5.5,2.73 h -161 L 170,329.77 C 165.86,327.71 155.67,318.63 128.77,293.02 109.11,274.31 92.8,259 92.52,259 92.23,259 92,283.75 92,314 Z m 116.53,3.25 c -0.7,1.65 1.93,1.75 47.47,1.75 45.54,0 48.17,-0.1 47.46,-1.75 -0.41,-0.96 -1.41,-4.23 -2.23,-7.25 -3.91,-14.53 5.38,-30.21 20.5,-34.61 13.91,-4.04 28.32,2.89 34.72,16.7 l 2.25,4.87 16.64,-15.73 16.63,-15.73 -13.24,-0.67 c -17.27,-0.88 -29.72,-4.04 -44.23,-11.22 -23.94,-11.85 -40.62,-28.8 -52,-52.86 -2.41,-5.09 -4.95,-11.39 -5.65,-14 L 275.59,182 h -39.35 l -1.19,4.75 c -0.65,2.61 -3.15,8.91 -5.55,14 -11.36,24.04 -28.06,41.01 -52,52.86 -14.5,7.17 -26.96,10.33 -44.19,11.22 l -13.19,0.67 16.55,15.7 16.54,15.7 2.94,-5.89 c 5.39,-10.78 14.47,-16.46 26.35,-16.46 15.31,0 26.92,10.42 28.92,25.95 0.59,4.58 -0.57,11.33 -2.89,16.75 z M 140.88,179.06 c -8.25,4.21 -19.62,3.17 -27.88,-2.56 -17.58,-12.18 -13.49,-41.03 6.79,-47.95 18.3,-6.23 36.53,6.75 36.57,26.06 0.02,10.54 -5.58,19.4 -15.48,24.45 z m 253.38,0.15 c -13.6,6.01 -28.9,0.59 -35.72,-12.65 -9.11,-17.72 3.82,-39.46 23.53,-39.54 11.37,-0.04 20.64,5.59 25.48,15.49 2.32,4.75 2.62,6.4 2.27,12.73 -0.64,11.48 -5.99,19.74 -15.56,23.97 z m -203.37,32.23 c -1.67,1.41 -4.02,2.56 -5.22,2.56 -2.61,-0.01 -32.83,-21.2 -33.83,-23.72 -1.41,-3.58 -0.75,-5.46 3.53,-10.07 4.74,-5.1 7.67,-10.25 9.7,-17.03 1.37,-4.58 4.07,-7.19 7.4,-7.16 2.64,0.02 33.26,13.42 35.68,15.61 1.02,0.93 1.85,2.99 1.85,4.59 0,7.05 -12.07,29.29 -19.11,35.22 z m 253.31,0.62 c -1.36,1.07 -3.44,1.94 -4.63,1.94 -2.19,0 -31.02,-19.65 -33.32,-22.72 -2.26,-3.01 -1.35,-6.1 3.38,-11.42 4.55,-5.13 9.34,-13.81 9.36,-16.98 0.02,-2.79 3.98,-6.88 6.66,-6.88 2.89,0 33.97,13.36 36.6,15.73 0.96,0.87 1.74,2.75 1.73,4.17 -0.04,7.07 -13.07,30.88 -19.78,36.16 z M 91.15,202.85 c -8.06,5.98 -15.55,11.13 -16.65,11.44 -1.1,0.31 -2.95,0.18 -4.12,-0.28 -4.86,-1.94 -16.59,-19.66 -20.37,-30.79 -2.21,-6.48 -2.27,-7.17 -0.82,-9.39 1.8,-2.75 33.31,-17.83 37.25,-17.83 2.59,0 6.55,4.15 6.57,6.88 0.02,3.17 4.81,11.85 9.36,16.98 4.47,5.03 5.31,7.22 4.03,10.54 -0.33,0.87 -7.2,6.47 -15.25,12.45 z m 254.5,-0.58 c -15.99,11.94 -18.24,13.12 -21.72,11.38 -6.23,-3.1 -20.41,-26.33 -21.62,-35.39 -0.4,-3.06 -0.06,-4.15 1.85,-5.83 2.85,-2.53 32.92,-16.43 35.53,-16.43 3.19,0 5.9,2.69 7.24,7.18 1.97,6.58 5.54,12.99 9.08,16.32 3.76,3.53 5.21,6.77 4.43,9.89 -0.36,1.41 -5.89,6.23 -14.79,12.88 z M 383,117.62 c -3.02,0 -8.2,0.36 -11.5,0.8 -8.97,1.2 -9.13,0.9 -11.73,-22.43 l -2.16,-19.26 2.64,-2.26 c 3.7,-3.19 14.74,-4.88 27.24,-4.16 12.52,0.72 17.26,2.05 18.72,5.24 1.59,3.49 -1.6,37.87 -3.83,41.27 -1.52,2.32 -1.9,2.4 -7.74,1.62 -3.38,-0.45 -8.62,-0.82 -11.64,-0.82 z m -254,0 c -3.03,0 -8.26,0.37 -11.64,0.82 -5.82,0.78 -6.22,0.7 -7.72,-1.59 -1.03,-1.57 -2.34,-8.97 -3.77,-21.3 l -2.18,-18.88 2.59,-2.24 c 5.09,-4.38 29.48,-5.82 41.02,-2.43 6.06,1.79 6.34,3.35 4.46,24.68 -1.98,22.56 -2.19,22.96 -11.26,21.74 -3.3,-0.44 -8.48,-0.8 -11.5,-0.8 z M 239.5,141 v 27 h 16.5 16.5 v -27 z m -62.15,176.91 c 4.76,1.38 6.76,1.22 11.38,-0.87 4.61,-2.1 7.72,-6.27 8.74,-11.75 1.66,-8.82 -8.29,-18.34 -17.52,-16.78 -8.17,1.38 -14.05,9.79 -12.53,17.91 0.85,4.56 5.81,10.29 9.93,11.49 z m 145.92,-0.87 c 4.9,2.22 5.93,2.31 10.9,0.93 4.56,-1.27 9.51,-6.75 10.41,-11.55 1.52,-8.12 -4.36,-16.53 -12.53,-17.91 -9.23,-1.56 -19.18,7.96 -17.52,16.78 1.02,5.48 4.13,9.65 8.74,11.75 z M 123.12,166.29 c 3.96,1.95 6.68,2.11 10.56,0.64 6.69,-2.53 10.47,-9.92 8.35,-16.33 -4.71,-14.29 -26.04,-11.6 -26.03,3.28 0.01,5.7 2.58,10.17 7.12,12.41 z M 378,166.88 c 8.93,3.56 17.99,-2.98 18,-13 0.01,-14.88 -21.32,-17.57 -26.03,-3.28 -2.07,6.26 1.61,13.72 8.03,16.28 z m -306.36,27.84 2.41,3.21 7.01,-5.11 c 8.27,-6.04 8.58,-6.44 6.65,-8.63 -0.81,-0.93 -2.48,-3.71 -3.72,-6.19 -1.23,-2.48 -2.4,-4.68 -2.61,-4.91 -0.28,-0.32 -15.77,6.41 -17.2,7.47 -0.54,0.41 4.92,10.77 7.46,14.16 z m 254.41,1.03 c 0.79,1.24 1.56,2.25 1.72,2.25 0.16,0 3.66,-2.53 7.78,-5.63 l 7.48,-5.63 -2.07,-3.12 c -1.14,-1.72 -2.82,-4.69 -3.73,-6.62 -0.92,-1.93 -1.79,-3.68 -1.93,-3.89 -0.51,-0.78 -17.28,7.42 -17.29,8.45 -0.01,0.92 3.31,6.77 8.04,14.19 z m 104.78,-3.54 c 3.67,2.6 6.98,4.73 7.35,4.75 1.74,0.1 10.31,-15.35 9.37,-16.88 -0.62,-1 -16.48,-7.51 -16.97,-6.96 -0.18,0.21 -1.34,2.4 -2.57,4.88 -1.24,2.48 -2.94,5.29 -3.79,6.26 -0.55,0.63 -0.95,1.05 -0.99,1.51 -0.09,1.01 1.57,2.18 7.14,6.11 z m -254.57,-0.43 c 3.98,2.82 7.56,5.15 7.94,5.17 1.85,0.12 10.23,-14.4 9.46,-16.39 -0.46,-1.21 -16.48,-8.22 -16.98,-7.44 -0.13,0.21 -0.99,1.95 -1.91,3.88 -0.91,1.93 -2.58,4.88 -3.7,6.57 l -2.04,3.07 z M 374.45,101.5 c 0.41,1.8 1.28,2 8.5,2 7.36,0 8.05,-0.17 8.1,-2 0.03,-1.1 0.39,-5.04 0.8,-8.76 0.42,-3.72 0.47,-7.22 0.12,-7.79 -0.39,-0.62 -4.19,-0.92 -9.55,-0.74 l -8.92,0.29 0.24,7.5 c 0.13,4.12 0.45,8.4 0.71,9.5 z m -253.97,-2 0.57,4 h 15.87 l 0.53,-5 c 0.3,-2.75 0.65,-7.03 0.79,-9.5 l 0.26,-4.5 h -19 l 0.21,5.5 c 0.11,3.03 0.46,7.3 0.77,9.5 z"
       fill="#040404"
       id="path1"
       sodipodi:nodetypes="cccccssccccccccccccsscccccccccccccccccccccccccccccsccssccccccsscscccccccccccccccccccccsccccccccccccccccccccsccscccsccccscccsccccccccsccccsccccccccssccccccccsccccccccccccccccccccccccccccccccccccscccccccccccccccccccccccccssccccccccccccccc" />
  </g>
</svg>
