<?xml version="1.0" encoding="UTF-8" standalone="no"?>
<svg
   width="1200pt"
   height="1200pt"
   version="1.1"
   viewBox="0 0 1200 1200"
   id="svg4"
   xmlns="http://www.w3.org/2000/svg"
   xmlns:svg="http://www.w3.org/2000/svg">
  <defs
     id="defs4" />
  <path
     d="M 600,22 C 281.27582,22 22,281.27582 22,600 c 0,318.72418 259.27582,578 578,578 318.72418,0 578,-259.27582 578,-578 C 1178,281.27582 918.72418,22 600,22 Z M 399.36185,801.17859 c -60.79944,77.95614 -141.05469,146.05379 -141.73024,146.72935 -3.91876,3.78235 -8.91941,5.80993 -14.45676,5.80993 h -1.3502 C 229.12319,952.90858 214.26223,941.96215 196.42773,920.34459 180.2168,900.61856 174.40596,892.91841 157.38099,862.9229 141.706,835.22313 136.0325,819.55262 128.19501,797.93618 l -0.54097,-1.62289 c -8.3784,-23.10379 -9.45589,-39.58719 -3.2414,-50.39825 2.83675,-5.00063 7.29648,-8.64668 12.97053,-10.81058 1.08195,-0.40464 107.68369,-38.23721 199.28706,-45.80225 14.99719,-1.21384 35.80524,32.15502 43.91069,46.61066 20.39823,36.35018 26.07623,55.80712 18.78029,65.2637 z M 521.7714,660.39411 c -597.320722,-735.944558 -597.320722,-735.944558 0,0 z M 600,680.52435 c -44.45116,0 -80.52548,-36.07319 -80.52548,-80.52548 0,-44.45226 36.07321,-80.52548 80.52548,-80.52548 44.45227,0 80.52548,36.07322 80.52548,80.52548 0,44.45229 -36.07321,80.52548 -80.52548,80.52548 z m 95.66184,-1.89276 c -771.211162,-754.182038 -771.211162,-754.182038 0,0 z m 27.83138,-545.43731 c -0.26827,1.21388 -21.48021,112.0061 -61.60897,195.09866 -6.07812,12.56521 -39.31922,14.32052 -57.68965,14.32052 h -4.72796 c -41.74668,-0.6773 -61.47724,-5.80994 -65.79961,-16.75251 -36.88725,-93.09068 -54.44815,-195.63907 -54.58438,-196.71995 -1.3502,-5.6736 -0.2683,-11.48321 3.10943,-16.62077 7.16014,-10.67424 24.04844,-17.8345 51.74821,-22.15801 25.26668,-3.91876 34.85948,-5.13259 69.31023,-4.59159 31.88592,0.54096 48.23422,3.64604 70.79644,7.83737 l 1.6229,0.26829 c 24.18465,4.45964 38.91051,11.88854 45.12443,22.69846 2.97311,4.99625 3.78241,10.5379 2.7004,16.61626 z m 351.82608,659.74147 c -7.8374,21.61645 -13.5111,37.29146 -29.186,64.98672 -17.025,29.99552 -22.9665,37.69566 -39.0467,57.4217 -17.8345,21.75269 -32.56375,32.69546 -45.39691,33.37327 h -1.35026 c -5.54158,0 -10.67419,-2.02758 -14.72467,-5.94619 -0.54096,-0.54096 -80.79796,-68.63693 -141.59514,-146.59421 -7.2965,-9.32393 -1.6229,-28.91351 18.91649,-65.25919 7.96936,-14.18878 27.96775,-46.61066 43.10118,-46.61066 h 0.80924 c 92.14498,7.5692 198.20607,45.39692 199.28707,45.80225 5.81,2.1639 10.1332,5.80995 12.9706,10.81059 6.2145,10.8106 5.1326,27.28995 -3.2416,50.39824 z"
     id="path4"
     fill="#000000"
     style="stroke-width:1.12592" />
</svg>
